<svg width="480" height="261" viewBox="0 0 480 261" fill="none" xmlns="http://www.w3.org/2000/svg">
<g clip-path="url(#clip0_6_6928)">
<rect width="480" height="261" fill="black"/>
<g filter="url(#filter0_ddd_6_6928)">
<g clip-path="url(#clip1_6_6928)">
<rect x="44.4653" y="245.368" width="327" height="192" rx="10" transform="rotate(-30 44.4653 245.368)" fill="#C4DB39"/>
<path d="M187.948 250.115C186.877 248.26 186.485 246.471 186.773 244.747C187.062 242.892 188.096 241.451 189.872 240.426C191.158 239.683 192.306 239.439 193.316 239.693C194.321 239.938 195.203 240.718 195.963 242.033C197.119 244.035 197.523 245.915 197.177 247.672C196.829 249.404 195.806 250.76 194.108 251.741C192.783 252.506 191.607 252.746 190.579 252.463C189.556 252.164 188.679 251.381 187.948 250.115ZM190.06 244.832C190.639 246.854 191.33 248.561 192.135 249.955C192.328 250.289 192.54 250.532 192.773 250.686C193.015 250.834 193.284 250.823 193.578 250.653C193.882 250.477 194.088 250.267 194.195 250.022C194.297 249.767 194.328 249.435 194.288 249.026C194.217 248.36 193.967 247.405 193.537 246.162C193.111 244.903 192.775 244.037 192.528 243.564C192.276 243.082 192.048 242.664 191.844 242.31C191.64 241.957 191.418 241.699 191.18 241.535C190.942 241.372 190.675 241.375 190.381 241.545C190.096 241.71 189.907 241.937 189.813 242.227C189.642 242.77 189.725 243.639 190.06 244.832ZM200.023 238.629C200.235 237.773 200.901 237.022 202.02 236.376C202.638 236.019 203.211 235.911 203.737 236.052C204.268 236.178 204.709 236.545 205.06 237.153C205.406 237.752 205.531 238.367 205.437 238.997C205.347 239.611 205.039 240.188 204.513 240.728C204.675 240.896 204.85 241.063 205.038 241.229L205.584 241.699C206.06 242.092 206.422 242.334 206.671 242.426C206.92 242.518 207.16 242.536 207.391 242.482C207.515 242.947 207.443 243.4 207.175 243.843C206.963 244.201 206.641 244.505 206.209 244.754C204.943 245.485 203.663 244.922 202.368 243.065C202.18 242.807 202.007 242.541 201.848 242.266C202.26 241.846 202.504 241.305 202.581 240.646C202.658 239.986 202.541 239.386 202.229 238.847C201.918 238.307 201.57 238.147 201.188 238.368C200.913 238.527 200.755 238.821 200.715 239.25C200.675 239.679 200.756 240.181 200.958 240.758L202.859 246.296L200.055 248.307L195.996 236.517L198.786 234.514L199.459 236.461C199.787 237.371 199.975 238.093 200.023 238.629ZM213.665 236.74C214.006 236.765 214.285 236.964 214.5 237.337C214.71 237.7 214.79 238.053 214.739 238.396C214.689 238.74 214.557 239.078 214.343 239.41C213.902 240.097 213.343 240.636 212.665 241.027C211.988 241.418 211.406 241.656 210.918 241.741C210.441 241.82 209.99 241.799 209.566 241.677C208.746 241.457 208.061 240.871 207.511 239.919C206.655 238.437 206.369 237.012 206.653 235.645C206.956 234.174 207.858 233.006 209.36 232.139C210.292 231.6 211.102 231.394 211.79 231.521C212.304 231.617 212.699 231.905 212.977 232.386C213.974 234.114 212.981 235.839 209.997 237.561C210.105 237.839 210.222 238.086 210.346 238.302C210.607 238.754 210.887 239.011 211.185 239.074C211.487 239.122 211.825 239.038 212.198 238.823C212.571 238.608 212.906 238.303 213.202 237.91C213.502 237.501 213.657 237.111 213.665 236.74ZM209.735 236.869C210.432 236.466 210.857 235.933 211.01 235.269C211.174 234.624 211.067 233.973 210.687 233.316C210.557 233.09 210.413 232.944 210.257 232.877C210.105 232.795 209.945 232.802 209.778 232.898C209.611 232.994 209.474 233.119 209.367 233.273C209.263 233.411 209.2 233.631 209.178 233.932C209.098 234.632 209.284 235.611 209.735 236.869ZM216.842 238.223L213.053 227.513C213.963 226.844 215.124 226.102 216.537 225.286C217.961 224.464 219.12 224.069 220.016 224.102C220.911 224.135 221.6 224.568 222.082 225.402C222.558 226.227 222.73 227.024 222.598 227.793C222.477 228.557 222.096 229.235 221.456 229.827C222.093 230.545 222.793 231.123 223.555 231.559C224.266 231.973 224.884 232.16 225.409 232.118C225.5 232.615 225.444 233.04 225.242 233.392C225.055 233.749 224.746 234.052 224.314 234.301C223.892 234.545 223.443 234.64 222.968 234.588C222.487 234.525 221.981 234.34 221.449 234.031C220.312 233.353 219.258 232.241 218.286 230.695L218.389 230.635C219.104 230.196 219.536 229.686 219.684 229.103C219.826 228.511 219.667 227.817 219.208 227.022C218.636 226.03 217.921 225.756 217.064 226.198L216.741 226.385C216.652 226.436 216.586 226.481 216.543 226.519L219.992 236.404L216.842 238.223ZM231.521 226.43C231.863 226.455 232.142 226.654 232.357 227.027C232.567 227.39 232.646 227.744 232.596 228.087C232.545 228.43 232.413 228.768 232.2 229.101C231.758 229.787 231.199 230.326 230.522 230.717C229.845 231.108 229.262 231.346 228.775 231.431C228.297 231.511 227.847 231.489 227.423 231.368C226.603 231.148 225.918 230.562 225.368 229.61C224.512 228.128 224.226 226.703 224.51 225.335C224.812 223.865 225.715 222.696 227.216 221.829C228.149 221.291 228.959 221.085 229.647 221.211C230.16 221.307 230.556 221.596 230.834 222.077C231.831 223.804 230.838 225.529 227.854 227.252C227.962 227.53 228.078 227.777 228.203 227.992C228.464 228.444 228.743 228.701 229.042 228.765C229.344 228.813 229.682 228.729 230.055 228.514C230.428 228.298 230.762 227.994 231.058 227.6C231.359 227.191 231.513 226.801 231.521 226.43ZM227.592 226.559C228.288 226.157 228.713 225.624 228.866 224.959C229.031 224.315 228.923 223.664 228.544 223.006C228.413 222.78 228.27 222.634 228.114 222.567C227.961 222.485 227.802 222.492 227.635 222.589C227.468 222.685 227.331 222.81 227.223 222.964C227.12 223.102 227.057 223.321 227.034 223.622C226.955 224.323 227.14 225.302 227.592 226.559ZM236.249 220.128C236.177 219.685 236.05 219.307 235.869 218.993C235.535 218.414 235.132 218.26 234.661 218.532C234.416 218.674 234.255 218.917 234.179 219.262C234.108 219.591 234.151 219.893 234.31 220.168C234.423 220.364 234.604 220.495 234.851 220.562C235.202 220.647 235.768 220.7 236.552 220.719C237.335 220.738 237.919 220.832 238.305 221.002C238.695 221.156 239.006 221.435 239.239 221.837C239.465 222.23 239.585 222.664 239.599 223.141C239.622 223.611 239.535 224.074 239.339 224.527C238.92 225.502 238.122 226.329 236.944 227.009C236.306 227.377 235.646 227.536 234.962 227.486C234.285 227.445 233.835 227.234 233.614 226.851C233.393 226.468 233.355 226.085 233.499 225.7C233.654 225.31 233.937 224.996 234.349 224.758C234.761 224.52 235.14 224.406 235.486 224.416C235.546 224.813 235.638 225.12 235.762 225.336C236.136 225.984 236.598 226.149 237.148 225.832C237.383 225.696 237.537 225.509 237.609 225.271C237.681 225.033 237.644 224.786 237.496 224.531C237.207 224.031 236.488 223.759 235.338 223.716C234.39 223.661 233.787 223.591 233.528 223.505C233.081 223.344 232.745 223.067 232.518 222.675C232.291 222.282 232.164 221.845 232.135 221.365C232.106 220.884 232.187 220.412 232.377 219.949C232.776 218.985 233.599 218.144 234.846 217.424C235.484 217.056 236.063 216.892 236.583 216.932C237.113 216.966 237.503 217.199 237.752 217.631C238.002 218.062 238.065 218.478 237.941 218.876C237.828 219.269 237.536 219.601 237.064 219.873C236.74 220.06 236.469 220.145 236.249 220.128ZM245.37 222.144C243.211 223.391 241.545 222.998 240.372 220.967C239.539 219.524 239.251 218.107 239.507 216.715C239.779 215.237 240.646 214.075 242.109 213.231C243.169 212.619 244.11 212.403 244.934 212.582C245.757 212.761 246.466 213.366 247.061 214.396C247.967 215.966 248.262 217.452 247.945 218.852C247.642 220.231 246.784 221.328 245.37 222.144ZM242.056 215.519C242.091 215.852 242.176 216.248 242.31 216.707C242.448 217.151 242.64 217.721 242.885 218.417C243.13 219.113 243.476 219.849 243.923 220.624C244.071 220.879 244.232 221.068 244.407 221.189C244.591 221.305 244.797 221.298 245.022 221.167C245.248 221.037 245.399 220.878 245.474 220.691C245.558 220.498 245.581 220.243 245.542 219.925C245.477 219.36 245.283 218.616 244.958 217.691C244.628 216.756 244.363 216.104 244.163 215.735C243.973 215.361 243.802 215.041 243.649 214.776C243.49 214.501 243.32 214.298 243.14 214.167C242.959 214.035 242.756 214.035 242.53 214.165C242.314 214.29 242.173 214.464 242.105 214.686C242.037 214.908 242.02 215.186 242.056 215.519ZM252.909 211.883C252.9 211.051 252.711 210.316 252.342 209.678C252.099 209.256 251.825 209.133 251.52 209.309C251.285 209.445 251.161 209.785 251.148 210.329C251.125 210.879 251.224 211.436 251.446 212.002L253.383 217.125L250.506 219.179L247.503 210.509L249.762 208.813L250.355 210.452C250.264 209.183 250.758 208.237 251.838 207.614C252.407 207.285 252.929 207.18 253.403 207.299C253.887 207.412 254.305 207.773 254.656 208.382C255.002 208.98 255.084 209.587 254.902 210.202C254.731 210.812 254.306 211.312 253.629 211.703C253.335 211.873 253.095 211.933 252.909 211.883ZM257.752 212.64C257.599 212.375 257.399 211.869 257.151 211.122L255.636 206.697L254.768 207.198L254.571 206.723C255.545 205.689 256.352 204.412 256.992 202.891L257.699 202.483L258.272 204.292L259.42 203.629L259.67 204.368L258.537 205.022L260.081 209.431C260.304 210.113 260.476 210.557 260.595 210.763C260.867 211.234 261.237 211.4 261.706 211.26C261.801 211.651 261.728 212.046 261.488 212.446C261.248 212.847 260.878 213.191 260.377 213.48C259.876 213.769 259.393 213.839 258.927 213.689C258.461 213.539 258.07 213.19 257.752 212.64Z" fill="white"/>
<path d="M209.779 258.201L214.394 266.194L212.851 267.085L210.882 263.674L207.257 265.767L209.226 269.178L207.672 270.075L203.057 262.081L204.611 261.184L206.477 264.416L210.102 262.323L208.236 259.091L209.779 258.201ZM218.605 263.913C217.96 264.285 217.324 264.467 216.699 264.458C216.076 264.437 215.507 264.266 214.99 263.943C214.474 263.621 214.06 263.19 213.748 262.649C213.432 262.101 213.263 261.523 213.242 260.915C213.228 260.302 213.37 259.725 213.668 259.183C213.969 258.629 214.438 258.168 215.076 257.8C215.714 257.431 216.344 257.257 216.967 257.278C217.592 257.287 218.163 257.453 218.68 257.775C219.196 258.098 219.612 258.533 219.929 259.081C220.241 259.621 220.407 260.196 220.428 260.804C220.449 261.412 220.309 261.993 220.009 262.547C219.711 263.089 219.243 263.544 218.605 263.913ZM215.302 261.752C215.501 262.098 215.746 262.366 216.037 262.559C216.324 262.743 216.627 262.843 216.946 262.859C217.266 262.875 217.572 262.798 217.864 262.629C218.15 262.465 218.365 262.24 218.511 261.956C218.653 261.664 218.716 261.347 218.699 261.007C218.686 260.654 218.579 260.305 218.38 259.96C218.185 259.622 217.94 259.363 217.646 259.183C217.355 258.991 217.05 258.887 216.73 258.871C216.407 258.848 216.102 258.918 215.817 259.083C215.524 259.252 215.307 259.482 215.165 259.774C215.019 260.059 214.957 260.375 214.978 260.723C214.994 261.064 215.102 261.407 215.302 261.752ZM225.915 259.137C225.765 259.344 225.565 259.579 225.317 259.843C225.076 260.102 224.798 260.322 224.483 260.504C224.205 260.665 223.922 260.763 223.633 260.8C223.344 260.837 223.067 260.791 222.803 260.664C222.543 260.524 222.313 260.281 222.113 259.936L220.157 256.547L219.38 256.996L218.71 255.836L219.487 255.388L218.382 253.474L219.891 252.603L220.996 254.517L222.234 253.802L222.904 254.961L221.665 255.676L223.329 258.559C223.446 258.761 223.583 258.877 223.741 258.907C223.905 258.932 224.066 258.899 224.224 258.808C224.381 258.717 224.52 258.602 224.64 258.462C224.76 258.323 224.854 258.209 224.922 258.119L225.915 259.137ZM229.6 257.565C228.962 257.933 228.33 258.113 227.705 258.104C227.087 258.091 226.518 257.929 225.998 257.618C225.474 257.3 225.056 256.871 224.744 256.331C224.424 255.775 224.253 255.193 224.232 254.585C224.214 253.965 224.358 253.381 224.663 252.835C224.963 252.281 225.436 251.818 226.082 251.445C226.727 251.073 227.361 250.897 227.984 250.918C228.602 250.931 229.166 251.101 229.674 251.428C230.186 251.742 230.596 252.166 230.904 252.699C231.017 252.894 231.103 253.07 231.163 253.225L226.603 255.858C226.905 256.294 227.282 256.557 227.734 256.646C228.193 256.731 228.622 256.659 229.019 256.429C229.32 256.256 229.56 256.022 229.74 255.728C229.924 255.422 229.995 255.12 229.954 254.824L231.457 254.437C231.499 255.013 231.365 255.586 231.053 256.156C230.738 256.718 230.253 257.188 229.6 257.565ZM226.017 254.92L229.102 253.139C228.801 252.723 228.426 252.464 227.977 252.362C227.532 252.249 227.103 252.312 226.69 252.55C226.285 252.784 226.016 253.125 225.883 253.571C225.754 254.006 225.799 254.456 226.017 254.92ZM228.783 246.929L230.291 246.058L233.944 252.385C234.105 252.663 234.256 252.821 234.398 252.859C234.54 252.897 234.69 252.87 234.848 252.779C234.968 252.71 235.083 252.623 235.193 252.52C235.303 252.416 235.394 252.313 235.466 252.212L236.331 253.243C236.185 253.458 235.992 253.67 235.752 253.878C235.512 254.087 235.284 254.254 235.066 254.379C234.593 254.652 234.154 254.741 233.748 254.645C233.346 254.537 233.01 254.25 232.741 253.785L228.783 246.929ZM244.857 248.607L243.843 248.306C243.474 249.21 242.873 249.902 242.04 250.383C241.484 250.704 240.941 250.872 240.41 250.889C239.882 250.893 239.402 250.78 238.969 250.55C238.543 250.315 238.209 249.988 237.966 249.568C237.68 249.072 237.574 248.568 237.648 248.055C237.718 247.534 237.855 247.035 238.059 246.557C237.548 246.382 237.157 246.207 236.886 246.033C236.616 245.859 236.398 245.629 236.233 245.344C236.012 244.961 235.913 244.573 235.936 244.18C235.962 243.774 236.095 243.398 236.334 243.049C236.574 242.701 236.903 242.405 237.324 242.163C237.691 241.95 238.076 241.819 238.476 241.767C238.873 241.709 239.248 241.752 239.602 241.898C239.957 242.044 240.247 242.312 240.472 242.702C240.719 243.13 240.81 243.582 240.746 244.06C240.681 244.538 240.53 245.03 240.293 245.537L242.76 246.275C242.729 245.962 242.662 245.646 242.557 245.326C242.46 245.002 242.316 244.674 242.126 244.344L243.353 243.636C243.656 244.161 243.872 244.682 244 245.198C244.135 245.711 244.196 246.206 244.182 246.684L246.838 247.463L244.857 248.607ZM237.581 244.506C237.659 244.641 237.78 244.747 237.943 244.822C238.11 244.886 238.399 244.979 238.81 245.102C238.987 244.75 239.109 244.449 239.176 244.201C239.242 243.952 239.217 243.727 239.1 243.524C238.983 243.321 238.819 243.201 238.607 243.163C238.398 243.114 238.185 243.152 237.967 243.277C237.727 243.416 237.571 243.606 237.5 243.847C237.433 244.076 237.459 244.296 237.581 244.506ZM239.425 248.74C239.611 249.063 239.903 249.265 240.3 249.346C240.697 249.427 241.098 249.351 241.503 249.117C241.961 248.852 242.304 248.449 242.532 247.907L239.554 247.014C239.407 247.349 239.314 247.664 239.273 247.957C239.236 248.239 239.286 248.5 239.425 248.74ZM251.731 236.772C251.62 236.736 251.421 236.72 251.134 236.726C250.843 236.724 250.515 236.763 250.151 236.843C249.79 236.912 249.449 237.039 249.126 237.225C248.278 237.715 248.027 238.26 248.374 238.86C248.499 239.078 248.667 239.212 248.875 239.261C249.084 239.311 249.35 239.303 249.672 239.237C249.994 239.171 250.388 239.073 250.854 238.944C251.457 238.776 252.003 238.672 252.489 238.631C252.984 238.586 253.419 238.655 253.795 238.838C254.174 239.009 254.504 239.339 254.786 239.827C255.115 240.397 255.243 240.939 255.169 241.452C255.098 241.953 254.883 242.413 254.524 242.83C254.164 243.248 253.722 243.608 253.197 243.912C252.596 244.258 251.947 244.513 251.25 244.675C250.557 244.825 249.888 244.871 249.244 244.813L249.157 243.077C249.263 243.105 249.435 243.126 249.673 243.139C249.906 243.144 250.179 243.132 250.492 243.101C250.8 243.063 251.123 242.997 251.459 242.904C251.795 242.81 252.113 242.676 252.413 242.503C253.269 242.009 253.538 241.488 253.222 240.94C253.088 240.707 252.893 240.569 252.638 240.526C252.383 240.483 252.07 240.504 251.698 240.589C251.334 240.669 250.911 240.768 250.429 240.886C249.836 241.038 249.321 241.125 248.884 241.148C248.45 241.158 248.074 241.08 247.757 240.912C247.436 240.738 247.156 240.444 246.918 240.031C246.602 239.483 246.465 238.952 246.508 238.436C246.554 237.91 246.744 237.424 247.079 236.981C247.409 236.53 247.844 236.149 248.384 235.837C248.94 235.516 249.51 235.307 250.094 235.21C250.678 235.113 251.21 235.081 251.69 235.114L251.731 236.772ZM260.7 239.609C260.235 239.878 259.769 240.007 259.302 239.996C258.836 239.985 258.405 239.864 258.011 239.631L259.993 243.065L258.485 243.936L253.694 235.638L255.011 234.878L255.596 235.891C255.615 235.42 255.74 234.988 255.973 234.593C256.209 234.187 256.548 233.856 256.991 233.6C257.524 233.292 258.077 233.158 258.65 233.198C259.218 233.23 259.757 233.409 260.266 233.735C260.771 234.055 261.183 234.492 261.504 235.047C261.838 235.625 262.026 236.212 262.07 236.807C262.116 237.391 262.025 237.934 261.795 238.437C261.568 238.928 261.203 239.319 260.7 239.609ZM259.453 238.618C259.76 238.441 259.979 238.204 260.109 237.909C260.242 237.602 260.294 237.277 260.266 236.933C260.241 236.577 260.139 236.246 259.962 235.938C259.771 235.608 259.528 235.352 259.234 235.172C258.936 234.984 258.619 234.887 258.285 234.879C257.954 234.861 257.63 234.942 257.315 235.124C257.03 235.289 256.799 235.547 256.622 235.9C256.445 236.252 256.39 236.599 256.457 236.94L257.257 238.325C257.583 238.577 257.949 238.736 258.357 238.801C258.765 238.866 259.13 238.805 259.453 238.618ZM262.823 235.907C262.602 235.524 262.514 235.13 262.559 234.723C262.608 234.305 262.778 233.906 263.07 233.528C263.362 233.149 263.756 232.817 264.251 232.531C264.499 232.388 264.763 232.265 265.044 232.163C265.321 232.053 265.575 231.981 265.806 231.948L265.624 231.633C265.407 231.258 265.128 231.034 264.786 230.961C264.451 230.884 264.066 230.971 263.631 231.223C263.308 231.409 263.033 231.643 262.805 231.924C262.577 232.206 262.365 232.549 262.168 232.953L261.112 232.242C261.355 231.761 261.642 231.34 261.974 230.978C262.313 230.612 262.707 230.299 263.158 230.039C263.998 229.554 264.773 229.387 265.481 229.539C266.196 229.686 266.779 230.15 267.23 230.931L268.316 232.811C268.411 232.976 268.504 233.077 268.596 233.114C268.683 233.144 268.799 233.127 268.942 233.065L269.651 234.292C269.533 234.4 269.42 234.49 269.312 234.562C269.215 234.638 269.13 234.698 269.055 234.741C268.754 234.914 268.486 234.979 268.251 234.935C268.015 234.891 267.826 234.78 267.683 234.602L267.474 234.317C267.406 234.807 267.233 235.252 266.954 235.653C266.679 236.043 266.342 236.352 265.944 236.582C265.546 236.811 265.148 236.936 264.749 236.956C264.346 236.969 263.975 236.888 263.634 236.715C263.297 236.529 263.026 236.26 262.823 235.907ZM266.668 234.092C266.752 233.804 266.746 233.577 266.651 233.412L266.306 232.815C265.825 232.883 265.386 233.031 264.988 233.261C264.59 233.491 264.317 233.763 264.169 234.079C264.017 234.387 264.021 234.68 264.181 234.958C264.311 235.183 264.518 235.334 264.802 235.41C265.086 235.486 265.397 235.426 265.735 235.231C265.96 235.101 266.154 234.934 266.317 234.731C266.487 234.522 266.604 234.31 266.668 234.092Z" fill="white"/>
<path d="M229.883 282.73C229.358 283.033 228.805 283.212 228.226 283.266C227.647 283.32 227.075 283.265 226.51 283.101C225.948 282.925 225.426 282.646 224.945 282.263C224.464 281.88 224.057 281.4 223.723 280.822C223.407 280.274 223.207 279.704 223.125 279.111C223.039 278.51 223.066 277.924 223.206 277.353C223.346 276.781 223.592 276.254 223.944 275.771C224.295 275.288 224.749 274.886 225.304 274.565C226.047 274.136 226.782 273.927 227.509 273.938C228.231 273.941 228.879 274.127 229.453 274.497L228.787 276.022C228.359 275.749 227.901 275.613 227.412 275.615C226.926 275.606 226.469 275.724 226.041 275.971C225.591 276.231 225.264 276.585 225.062 277.032C224.867 277.475 224.789 277.955 224.828 278.473C224.875 278.986 225.036 279.483 225.314 279.964C225.604 280.467 225.968 280.862 226.404 281.151C226.841 281.439 227.305 281.601 227.796 281.638C228.291 281.662 228.767 281.543 229.225 281.278C229.998 280.832 230.486 280.065 230.689 278.977L230.364 278.414L228.754 279.344L228.097 278.207L230.991 276.536L233.363 280.645L232.08 281.386L231.56 280.486C231.282 281.496 230.724 282.244 229.883 282.73ZM230.66 273.244L229.796 271.747L231.304 270.876L232.169 272.373L230.66 273.244ZM234.541 279.966L231.135 274.066L232.643 273.195L236.049 279.095L234.541 279.966ZM237.771 278.101L235.21 273.665L234.433 274.114L233.77 272.965L234.547 272.517L234.339 272.156C233.918 271.428 233.761 270.749 233.867 270.117C233.976 269.474 234.33 268.979 234.931 268.632C235.411 268.355 235.962 268.192 236.585 268.143L236.937 269.455C236.79 269.46 236.627 269.489 236.447 269.543C236.271 269.585 236.119 269.642 235.992 269.716C235.466 270.019 235.407 270.524 235.815 271.229L236.055 271.646L237.496 270.814L238.159 271.962L236.718 272.794L239.279 277.23L237.771 278.101ZM244.937 273.558C244.786 273.765 244.587 274 244.339 274.264C244.098 274.523 243.82 274.743 243.505 274.925C243.227 275.086 242.944 275.184 242.655 275.221C242.366 275.258 242.089 275.212 241.825 275.084C241.564 274.945 241.334 274.702 241.135 274.357L239.178 270.968L238.402 271.417L237.732 270.257L238.509 269.809L237.404 267.895L238.913 267.024L240.018 268.938L241.256 268.223L241.926 269.382L240.687 270.097L242.351 272.979C242.468 273.182 242.605 273.298 242.762 273.327C242.927 273.353 243.088 273.32 243.246 273.229C243.403 273.138 243.542 273.022 243.662 272.883C243.781 272.744 243.875 272.63 243.944 272.54L244.937 273.558ZM251.415 270.373C250.777 270.742 250.143 270.918 249.513 270.901C248.883 270.885 248.306 270.717 247.782 270.399C247.258 270.081 246.84 269.652 246.528 269.112C246.212 268.564 246.043 267.986 246.022 267.377C246.009 266.765 246.154 266.185 246.46 265.639C246.765 265.092 247.236 264.635 247.874 264.267C248.519 263.894 249.148 263.717 249.758 263.734C250.376 263.748 250.928 263.914 251.413 264.235L250.198 265.537C249.676 265.238 249.144 265.245 248.604 265.557C248.311 265.726 248.092 265.952 247.946 266.237C247.795 266.514 247.731 266.826 247.751 267.175C247.768 267.515 247.878 267.862 248.082 268.215C248.281 268.56 248.526 268.829 248.817 269.021C249.112 269.201 249.421 269.303 249.744 269.326C250.064 269.342 250.366 269.268 250.651 269.103C250.921 268.947 251.132 268.74 251.284 268.483C251.438 268.213 251.502 267.951 251.475 267.696L253.21 267.295C253.263 267.855 253.138 268.418 252.834 268.984C252.533 269.538 252.06 270.001 251.415 270.373ZM253.545 266.667C253.324 266.284 253.236 265.889 253.281 265.483C253.33 265.065 253.5 264.666 253.792 264.287C254.084 263.909 254.477 263.576 254.973 263.29C255.221 263.147 255.485 263.025 255.766 262.923C256.043 262.813 256.297 262.741 256.528 262.708L256.346 262.393C256.129 262.017 255.85 261.793 255.508 261.721C255.173 261.644 254.788 261.731 254.353 261.982C254.03 262.169 253.755 262.403 253.527 262.684C253.299 262.966 253.087 263.309 252.89 263.713L251.834 263.001C252.077 262.521 252.364 262.1 252.696 261.738C253.035 261.372 253.429 261.059 253.88 260.799C254.72 260.314 255.495 260.147 256.203 260.299C256.918 260.446 257.501 260.91 257.952 261.691L259.037 263.571C259.133 263.736 259.226 263.837 259.318 263.874C259.405 263.904 259.52 263.887 259.664 263.824L260.373 265.051C260.255 265.159 260.142 265.25 260.034 265.322C259.937 265.398 259.852 265.457 259.777 265.501C259.476 265.674 259.208 265.739 258.973 265.695C258.737 265.65 258.548 265.54 258.405 265.362L258.196 265.077C258.128 265.567 257.955 266.012 257.676 266.413C257.401 266.802 257.064 267.112 256.666 267.342C256.268 267.571 255.87 267.696 255.471 267.716C255.068 267.729 254.697 267.648 254.356 267.474C254.019 267.289 253.748 267.02 253.545 266.667ZM257.39 264.852C257.474 264.563 257.468 264.337 257.373 264.171L257.028 263.575C256.547 263.643 256.108 263.791 255.71 264.021C255.312 264.251 255.039 264.523 254.891 264.839C254.739 265.147 254.743 265.44 254.903 265.718C255.033 265.943 255.24 266.093 255.524 266.17C255.808 266.246 256.119 266.186 256.457 265.991C256.682 265.861 256.876 265.694 257.039 265.49C257.209 265.282 257.326 265.069 257.39 264.852ZM262.283 257.824C261.825 258.088 261.468 258.415 261.212 258.803C260.951 259.183 260.837 259.584 260.87 260.006L262.931 263.575L261.422 264.446L258.016 258.546L259.401 257.747L260.129 259.008C260.098 258.485 260.176 258.015 260.365 257.596C260.561 257.172 260.832 256.845 261.179 256.615C261.337 256.524 261.44 256.469 261.49 256.451L262.283 257.824ZM263.658 259.222C263.333 258.659 263.149 258.08 263.105 257.485C263.062 256.889 263.161 256.342 263.403 255.842C263.644 255.342 264.02 254.945 264.531 254.65C264.966 254.399 265.419 254.282 265.89 254.3C266.364 254.307 266.794 254.419 267.18 254.636L265.243 251.281L266.752 250.41L270.522 256.94C270.617 257.105 270.71 257.207 270.802 257.244C270.889 257.274 271.001 257.259 271.137 257.2L271.846 258.428C271.606 258.636 271.407 258.786 271.249 258.877C270.979 259.033 270.715 259.095 270.457 259.064C270.206 259.029 270.007 258.909 269.859 258.704L269.622 258.346C269.616 258.839 269.482 259.292 269.22 259.703C268.965 260.111 268.634 260.432 268.229 260.666C267.681 260.982 267.119 261.126 266.543 261.099C265.962 261.064 265.42 260.887 264.915 260.568C264.406 260.241 263.987 259.792 263.658 259.222ZM268.74 257.338L267.927 255.931C267.617 255.67 267.252 255.515 266.834 255.467C266.415 255.418 266.052 255.483 265.745 255.66C265.437 255.838 265.217 256.08 265.084 256.387C264.946 256.687 264.894 257.012 264.927 257.364C264.955 257.707 265.06 258.037 265.242 258.352C265.429 258.675 265.671 258.93 265.97 259.118C266.264 259.298 266.577 259.398 266.908 259.417C267.242 259.424 267.567 259.337 267.882 259.155C268.167 258.99 268.395 258.734 268.564 258.386C268.741 258.033 268.8 257.684 268.74 257.338Z" fill="white"/>
</g>
</g>
<g filter="url(#filter1_ddd_6_6928)">
<g clip-path="url(#clip2_6_6928)">
<rect x="350.172" y="68.8682" width="327" height="192" rx="10" transform="rotate(-30 350.172 68.8682)" fill="#053742"/>
<path d="M411.862 143.718L409.862 140.254C409.129 138.984 409.568 137.344 410.838 136.611L428.159 126.611C429.429 125.878 431.068 126.317 431.801 127.587L433.801 131.051L426.873 135.051C426.238 135.418 425.418 135.198 425.052 134.563C424.685 133.928 424.905 133.108 425.54 132.742L426.117 132.408L425.45 131.254L424.873 131.587C423.603 132.32 423.164 133.96 423.897 135.23C424.63 136.5 426.27 136.939 427.54 136.206L429.272 135.206L431.272 138.67L429.54 139.67C427.923 140.603 427.386 142.607 428.32 144.223C429.253 145.84 431.256 146.377 432.873 145.443L434.028 144.777L433.361 143.622L432.206 144.289C431.225 144.855 430.041 144.538 429.474 143.557C428.908 142.575 429.225 141.391 430.206 140.825L437.135 136.825L439.135 140.289C439.868 141.559 439.429 143.198 438.159 143.932L420.838 153.932C419.568 154.665 417.929 154.226 417.195 152.955L415.195 149.491L422.124 145.491C423.105 144.925 424.289 145.242 424.856 146.223C425.422 147.205 425.105 148.389 424.124 148.956L422.969 149.622L423.636 150.777L424.79 150.11C426.407 149.177 426.944 147.173 426.01 145.557C425.077 143.94 423.073 143.403 421.457 144.337L419.725 145.337L417.725 141.873L419.457 140.873C420.727 140.139 421.166 138.5 420.433 137.23C419.7 135.96 418.06 135.52 416.79 136.254L415.058 137.254L415.725 138.409L417.457 137.409C418.092 137.042 418.912 137.261 419.278 137.897C419.645 138.532 419.425 139.351 418.79 139.718L411.862 143.718Z" fill="#F8F7FA"/>
<path d="M412.529 144.873L414.529 148.337L418.57 146.003L416.57 142.539L412.529 144.873Z" fill="#F8F7FA"/>
<path d="M430.426 134.539L434.468 132.206L436.468 135.67L432.426 138.003L430.426 134.539Z" fill="#F8F7FA"/>
</g>
</g>
<g filter="url(#filter2_ddd_6_6928)">
<g clip-path="url(#clip3_6_6928)">
<rect x="-289.407" y="169.084" width="341.169" height="192" rx="10" transform="rotate(-30 -289.407 169.084)" fill="url(#paint0_linear_6_6928)"/>
</g>
</g>
<g filter="url(#filter3_ddd_6_6928)">
<g clip-path="url(#clip4_6_6928)">
<rect x="21.8879" y="-10.6416" width="341.169" height="192" rx="10" transform="rotate(-30 21.8879 -10.6416)" fill="url(#paint1_linear_6_6928)"/>
<path d="M82.0776 61.61L80.0776 58.1458C79.3443 56.8757 79.7835 55.2364 81.0537 54.5031L98.3742 44.5031C99.6443 43.7698 101.284 44.209 102.017 45.4792L104.017 48.9432L97.0887 52.9432C96.4536 53.3098 95.634 53.0902 95.2673 52.4551C94.9006 51.8201 95.1202 51.0004 95.7553 50.6338L96.3327 50.3004L95.666 49.1457L95.0887 49.4791C93.8185 50.2124 93.3793 51.8516 94.1126 53.1218C94.8459 54.392 96.4851 54.8312 97.7553 54.0979L99.4874 53.0979L101.487 56.562L99.7553 57.562C98.1387 58.4953 97.6019 60.4988 98.5352 62.1154C99.4686 63.732 101.472 64.2688 103.089 63.3355L104.243 62.6688L103.577 61.5141L102.422 62.1808C101.44 62.7474 100.257 62.4302 99.6899 61.4487C99.1233 60.4672 99.4405 59.2833 100.422 58.7167L107.35 54.7167L109.35 58.1809C110.084 59.451 109.644 61.0903 108.374 61.8236L91.0537 71.8236C89.7835 72.5569 88.1443 72.1177 87.4109 70.8475L85.411 67.3835L92.3392 63.3835C93.3207 62.8168 94.5046 63.1341 95.0712 64.1156C95.6379 65.0971 95.3207 66.2809 94.3392 66.8476L93.1845 67.5143L93.8511 68.669L95.0058 68.0023C96.6224 67.069 97.1593 65.0655 96.2259 63.4489C95.2926 61.8323 93.2891 61.2955 91.6725 62.2288L89.9405 63.2288L87.9405 59.7647L89.6725 58.7647C90.9427 58.0314 91.3819 56.3921 90.6486 55.122C89.9152 53.8518 88.276 53.4126 87.0058 54.1459L85.2738 55.1459L85.9405 56.3006L87.6725 55.3006C88.3076 54.9339 89.1272 55.1536 89.4939 55.7886C89.8605 56.4237 89.6409 57.2433 89.0058 57.61L82.0776 61.61Z" fill="#F8F7FA"/>
<path d="M82.7443 62.7647L84.7443 66.2288L88.7858 63.8955L86.7858 60.4314L82.7443 62.7647Z" fill="#F8F7FA"/>
<path d="M100.642 52.4312L104.684 50.0979L106.684 53.562L102.642 55.8953L100.642 52.4312Z" fill="#F8F7FA"/>
<path d="M187.201 2.1912L191.816 10.1846L190.274 11.0751L188.304 7.66384L184.679 9.75684L186.649 13.1681L185.095 14.0651L180.48 6.0717L182.034 5.1747L183.899 8.40584L187.524 6.31284L185.659 3.0817L187.201 2.1912ZM196.028 7.90306C195.383 8.27573 194.747 8.45754 194.121 8.44851C193.499 8.42763 192.929 8.25602 192.413 7.93367C191.897 7.61133 191.483 7.17996 191.171 6.63956C190.854 6.09165 190.686 5.51353 190.665 4.90518C190.651 4.2925 190.793 3.71515 191.091 3.17311C191.391 2.61923 191.861 2.15812 192.499 1.78979C193.137 1.42146 193.767 1.24773 194.389 1.26861C195.015 1.27765 195.586 1.44334 196.102 1.76568C196.619 2.08803 197.035 2.52315 197.351 3.07106C197.663 3.61146 197.83 4.18583 197.851 4.79417C197.872 5.40252 197.732 5.98363 197.431 6.53751C197.134 7.07954 196.666 7.53473 196.028 7.90306ZM192.724 5.74256C192.924 6.08781 193.169 6.35654 193.46 6.54874C193.747 6.73343 194.05 6.83367 194.369 6.84945C194.688 6.86523 194.994 6.78861 195.287 6.61961C195.572 6.45495 195.788 6.23039 195.934 5.94595C196.076 5.654 196.138 5.33768 196.122 4.99698C196.108 4.64445 196.002 4.29555 195.802 3.9503C195.607 3.61255 195.363 3.35349 195.069 3.17313C194.777 2.98093 194.472 2.87694 194.153 2.86116C193.829 2.83788 193.525 2.90857 193.24 3.07324C192.947 3.24224 192.73 3.47271 192.588 3.76466C192.442 4.04911 192.379 4.36543 192.4 4.71363C192.417 5.05433 192.525 5.3973 192.724 5.74256ZM203.338 3.12739C203.187 3.33446 202.988 3.56969 202.739 3.83309C202.499 4.09216 202.221 4.31269 201.906 4.49469C201.628 4.65503 201.344 4.75357 201.055 4.79033C200.766 4.82709 200.49 4.78156 200.226 4.65374C199.965 4.51408 199.735 4.27162 199.536 3.92637L197.579 0.53761L196.803 0.98611L196.133 -0.173498L196.91 -0.621998L195.805 -2.53591L197.314 -3.40691L198.419 -1.493L199.657 -2.208L200.326 -1.04839L199.088 -0.33339L200.752 2.54874C200.869 2.75139 201.006 2.86742 201.163 2.89682C201.328 2.92188 201.489 2.88892 201.646 2.79792C201.804 2.70692 201.943 2.59181 202.063 2.45261C202.182 2.3134 202.276 2.19904 202.345 2.10951L203.338 3.12739ZM207.023 1.55526C206.385 1.92359 205.753 2.10324 205.127 2.0942C204.509 2.08082 203.94 1.91889 203.421 1.60838C202.897 1.29037 202.479 0.861164 202.167 0.320764C201.846 -0.234647 201.676 -0.816524 201.655 -1.42487C201.637 -2.04505 201.78 -2.62833 202.085 -3.1747C202.386 -3.72858 202.859 -4.19185 203.505 -4.56452C204.15 -4.93719 204.784 -5.11308 205.407 -5.0922C206.025 -5.07883 206.588 -4.9088 207.097 -4.58213C207.609 -4.26729 208.019 -3.84342 208.327 -3.31053C208.439 -3.11538 208.525 -2.94001 208.585 -2.7844L204.026 -0.151903C204.328 0.28427 204.704 0.547036 205.156 0.636397C205.616 0.721425 206.044 0.649105 206.442 0.419439C206.742 0.246105 206.983 0.0123026 207.163 -0.28197C207.346 -0.588081 207.418 -0.889392 207.377 -1.1859L208.879 -1.57314C208.922 -0.997137 208.787 -0.424112 208.476 0.145939C208.16 0.708483 207.676 1.17825 207.023 1.55526ZM203.439 -1.08936L206.524 -2.87036C206.223 -3.28719 205.849 -3.5462 205.4 -3.6474C204.955 -3.76044 204.525 -3.69779 204.113 -3.45946C203.707 -3.22546 203.438 -2.88511 203.306 -2.4384C203.177 -2.00354 203.221 -1.55385 203.439 -1.08936ZM206.205 -9.08102L207.714 -9.95202L211.367 -3.62484C211.527 -3.34714 211.679 -3.18925 211.821 -3.15118C211.963 -3.11312 212.112 -3.13958 212.27 -3.23058C212.39 -3.29992 212.505 -3.38643 212.616 -3.49012C212.726 -3.59381 212.817 -3.69633 212.888 -3.7977L213.754 -2.76635C213.608 -2.55178 213.415 -2.34022 213.175 -2.13168C212.935 -1.92314 212.706 -1.75604 212.488 -1.63037C212.016 -1.35737 211.576 -1.26888 211.171 -1.3649C210.768 -1.47276 210.433 -1.75936 210.164 -2.2247L206.205 -9.08102ZM222.279 -7.40322L221.265 -7.70346C220.896 -6.79991 220.295 -6.10764 219.462 -5.62664C218.907 -5.30597 218.364 -5.13747 217.833 -5.12113C217.305 -5.11663 216.824 -5.22951 216.391 -5.45978C215.966 -5.69438 215.631 -6.02183 215.389 -6.44214C215.103 -6.93751 214.997 -7.44174 215.071 -7.95483C215.14 -8.47543 215.277 -8.97483 215.482 -9.45303C214.97 -9.62813 214.579 -9.80268 214.309 -9.9767C214.038 -10.1507 213.821 -10.3803 213.656 -10.6655C213.435 -11.0483 213.336 -11.4365 213.359 -11.83C213.385 -12.2354 213.518 -12.6123 213.757 -12.9605C213.996 -13.3088 214.326 -13.6043 214.746 -13.847C215.114 -14.0593 215.498 -14.1911 215.899 -14.2423C216.295 -14.301 216.671 -14.2576 217.025 -14.1119C217.379 -13.9662 217.669 -13.6982 217.895 -13.3079C218.142 -12.8801 218.233 -12.4274 218.168 -11.9498C218.104 -11.4722 217.953 -10.9798 217.715 -10.4724L220.182 -9.73519C220.152 -10.0479 220.084 -10.3641 219.98 -10.684C219.883 -11.0082 219.739 -11.3355 219.548 -11.6657L220.775 -12.3742C221.079 -11.8488 221.294 -11.3279 221.422 -10.8114C221.558 -10.2992 221.619 -9.80393 221.605 -9.3255L224.261 -8.54722L222.279 -7.40322ZM215.003 -11.5036C215.081 -11.3685 215.202 -11.2631 215.366 -11.1875C215.533 -11.1238 215.822 -11.0305 216.233 -10.9076C216.41 -11.2599 216.532 -11.5604 216.598 -11.809C216.665 -12.0576 216.64 -12.2832 216.523 -12.4859C216.406 -12.6885 216.241 -12.8087 216.029 -12.8465C215.821 -12.8961 215.607 -12.8581 215.39 -12.7324C215.15 -12.5937 214.994 -12.4038 214.923 -12.1627C214.855 -11.9334 214.882 -11.7137 215.003 -11.5036ZM216.848 -7.26938C217.034 -6.94665 217.326 -6.74477 217.723 -6.66377C218.12 -6.58276 218.521 -6.65926 218.926 -6.89326C219.384 -7.15759 219.727 -7.56062 219.954 -8.10235L216.977 -8.9953C216.83 -8.66033 216.736 -8.34602 216.696 -8.05237C216.658 -7.77056 216.709 -7.50956 216.848 -7.26938ZM229.154 -19.238C229.043 -19.2741 228.844 -19.2893 228.557 -19.2838C228.266 -19.2857 227.938 -19.2466 227.574 -19.1665C227.213 -19.0983 226.871 -18.971 226.549 -18.7846C225.7 -18.295 225.45 -17.7499 225.796 -17.1495C225.922 -16.9318 226.089 -16.7982 226.298 -16.7486C226.507 -16.699 226.772 -16.7072 227.094 -16.7731C227.417 -16.839 227.811 -16.9365 228.277 -17.0654C228.88 -17.2336 229.425 -17.3382 229.912 -17.379C230.406 -17.4242 230.841 -17.3552 231.217 -17.172C231.596 -17.0006 231.927 -16.671 232.209 -16.1831C232.538 -15.6127 232.666 -15.0709 232.592 -14.5579C232.521 -14.0566 232.306 -13.5972 231.946 -13.1795C231.587 -12.7619 231.145 -12.4015 230.619 -12.0981C230.019 -11.7515 229.37 -11.497 228.673 -11.3348C227.979 -11.1845 227.31 -11.1385 226.666 -11.1969L226.579 -12.9331C226.686 -12.9046 226.858 -12.8838 227.096 -12.8709C227.329 -12.8655 227.602 -12.878 227.915 -12.9084C228.223 -12.9464 228.545 -13.0123 228.881 -13.1062C229.217 -13.2002 229.535 -13.3338 229.836 -13.5072C230.691 -14.0012 230.961 -14.5221 230.645 -15.07C230.51 -15.3027 230.316 -15.4405 230.061 -15.4834C229.806 -15.5264 229.492 -15.5056 229.121 -15.4212C228.757 -15.3411 228.334 -15.2419 227.852 -15.1237C227.259 -14.9716 226.744 -14.8844 226.306 -14.862C225.872 -14.8515 225.497 -14.9299 225.18 -15.0973C224.859 -15.2721 224.579 -15.566 224.341 -15.9788C224.024 -16.5267 223.888 -17.0582 223.93 -17.5733C223.976 -18.1002 224.167 -18.5854 224.501 -19.0287C224.831 -19.4795 225.267 -19.8609 225.807 -20.1729C226.362 -20.4936 226.932 -20.7025 227.517 -20.7997C228.101 -20.8969 228.633 -20.9288 229.113 -20.8955L229.154 -19.238ZM238.123 -16.4004C237.658 -16.1317 237.192 -16.0028 236.725 -16.0136C236.258 -16.0244 235.828 -16.1461 235.433 -16.3787L237.416 -12.9449L235.907 -12.0739L231.117 -20.3713L232.434 -21.1318L233.019 -20.1186C233.037 -20.5895 233.163 -21.0222 233.395 -21.4167C233.631 -21.823 233.97 -22.154 234.413 -22.4097C234.946 -22.7173 235.499 -22.8515 236.072 -22.8121C236.641 -22.7802 237.18 -22.601 237.689 -22.2743C238.193 -21.9551 238.606 -21.5178 238.927 -20.9624C239.26 -20.3845 239.449 -19.7978 239.492 -19.2025C239.539 -18.619 239.447 -18.0757 239.217 -17.5727C238.991 -17.0815 238.626 -16.6907 238.123 -16.4004ZM236.875 -17.3913C237.183 -17.569 237.402 -17.8054 237.532 -18.1005C237.665 -18.4075 237.717 -18.7329 237.688 -19.0768C237.663 -19.4325 237.562 -19.7642 237.384 -20.0719C237.193 -20.4022 236.951 -20.6575 236.657 -20.8378C236.358 -21.0257 236.042 -21.1232 235.707 -21.1303C235.376 -21.1492 235.053 -21.0677 234.738 -20.8857C234.452 -20.721 234.221 -20.4626 234.045 -20.1103C233.868 -19.7579 233.813 -19.411 233.88 -19.0695L234.679 -17.6847C235.005 -17.4325 235.372 -17.2739 235.78 -17.2091C236.187 -17.1443 236.553 -17.205 236.875 -17.3913ZM240.245 -20.1026C240.024 -20.4854 239.937 -20.8801 239.982 -21.2866C240.031 -21.705 240.201 -22.1035 240.493 -22.4821C240.785 -22.8607 241.178 -23.1931 241.673 -23.4791C241.921 -23.6221 242.186 -23.7447 242.467 -23.847C242.744 -23.9568 242.998 -24.0284 243.229 -24.0616L243.047 -24.3769C242.83 -24.7521 242.55 -24.9761 242.208 -25.0488C241.874 -25.1257 241.489 -25.0386 241.053 -24.7872C240.731 -24.6009 240.455 -24.3669 240.228 -24.0854C240 -23.8038 239.788 -23.461 239.59 -23.057L238.534 -23.7682C238.777 -24.2487 239.065 -24.6698 239.396 -25.0314C239.735 -25.3973 240.13 -25.7103 240.58 -25.9703C241.421 -26.4556 242.195 -26.6225 242.903 -26.4708C243.619 -26.3235 244.202 -25.8596 244.653 -25.079L245.738 -23.1988C245.833 -23.0337 245.927 -22.9326 246.018 -22.8953C246.106 -22.8656 246.221 -22.8823 246.365 -22.9453L247.073 -21.7181C246.956 -21.6101 246.843 -21.5198 246.734 -21.4473C246.638 -21.3716 246.552 -21.3121 246.477 -21.2688C246.177 -21.0955 245.909 -21.0308 245.673 -21.0749C245.438 -21.119 245.249 -21.23 245.106 -21.4078L244.897 -21.6923C244.829 -21.2029 244.656 -20.7576 244.377 -20.3565C244.101 -19.9672 243.765 -19.6577 243.367 -19.428C242.969 -19.1983 242.571 -19.0735 242.172 -19.0534C241.769 -19.0409 241.397 -19.1215 241.057 -19.2952C240.72 -19.4807 240.449 -19.7499 240.245 -20.1026ZM244.091 -21.9177C244.175 -22.2061 244.169 -22.4329 244.074 -22.598L243.729 -23.1947C243.248 -23.127 242.808 -22.9783 242.41 -22.7487C242.013 -22.519 241.74 -22.2463 241.592 -21.9307C241.439 -21.6226 241.443 -21.3297 241.604 -21.052C241.734 -20.8268 241.941 -20.6762 242.225 -20.6C242.509 -20.5239 242.82 -20.5833 243.158 -20.7783C243.383 -20.9083 243.577 -21.0753 243.739 -21.2792C243.909 -21.4874 244.026 -21.7002 244.091 -21.9177Z" fill="black"/>
<path d="M207.306 26.72C206.78 27.0234 206.228 27.2021 205.649 27.2563C205.07 27.3105 204.497 27.2555 203.932 27.0914C203.37 26.9154 202.849 26.6361 202.368 26.2534C201.887 25.8707 201.479 25.3904 201.146 24.8125C200.829 24.2646 200.63 23.6941 200.548 23.1011C200.461 22.5006 200.488 21.9146 200.629 21.3431C200.769 20.7717 201.015 20.2444 201.367 19.7613C201.718 19.2781 202.171 18.8762 202.727 18.5555C203.47 18.1265 204.205 17.9174 204.932 17.9281C205.654 17.9314 206.302 18.1177 206.875 18.4871L206.21 20.0122C205.782 19.7389 205.323 19.6034 204.834 19.6055C204.348 19.5959 203.891 19.7145 203.464 19.9615C203.013 20.2215 202.687 20.575 202.485 21.0221C202.29 21.4647 202.212 21.9451 202.251 22.463C202.297 22.9767 202.459 23.4737 202.736 23.954C203.027 24.4569 203.39 24.8525 203.827 25.1408C204.264 25.4291 204.728 25.5915 205.219 25.628C205.714 25.6527 206.19 25.5328 206.648 25.2685C207.421 24.8222 207.909 24.0551 208.111 22.9674L207.786 22.4045L206.176 23.334L205.52 22.1969L208.413 20.5264L210.786 24.6357L209.502 25.3767L208.982 24.4761C208.705 25.4867 208.146 26.2347 207.306 26.72ZM208.083 17.2345L207.218 15.7372L208.727 14.8662L209.592 16.3635L208.083 17.2345ZM211.963 23.9558L208.557 18.0564L210.066 17.1854L213.472 23.0848L211.963 23.9558ZM215.193 22.091L212.632 17.6552L211.855 18.1037L211.192 16.9554L211.969 16.5069L211.761 16.1466C211.341 15.4186 211.184 14.7388 211.289 14.1073C211.398 13.464 211.753 12.969 212.353 12.6224C212.834 12.345 213.385 12.1819 214.007 12.1329L214.36 13.4455C214.213 13.4504 214.049 13.4796 213.87 13.5331C213.694 13.5747 213.542 13.6324 213.414 13.7061C212.889 14.0094 212.83 14.5138 213.237 15.2193L213.478 15.6359L214.919 14.8039L215.582 15.9522L214.141 16.7842L216.702 21.22L215.193 22.091ZM222.359 17.5483C222.209 17.7554 222.009 17.9906 221.761 18.254C221.52 18.5131 221.242 18.7336 220.927 18.9156C220.65 19.0759 220.366 19.1745 220.077 19.2112C219.788 19.248 219.512 19.2025 219.248 19.0746C218.987 18.935 218.757 18.6925 218.558 18.3473L216.601 14.9585L215.824 15.407L215.155 14.2474L215.932 13.7989L214.827 11.885L216.335 11.014L217.44 12.9279L218.679 12.2129L219.348 13.3725L218.11 14.0875L219.774 16.9696C219.891 17.1723 220.028 17.2883 220.185 17.3177C220.349 17.3428 220.511 17.3098 220.668 17.2188C220.826 17.1278 220.964 17.0127 221.084 16.8735C221.204 16.7343 221.298 16.6199 221.366 16.5304L222.359 17.5483ZM228.837 14.3637C228.199 14.732 227.565 14.9079 226.935 14.8914C226.305 14.8748 225.728 14.7076 225.205 14.3895C224.681 14.0715 224.263 13.6423 223.951 13.1019C223.634 12.554 223.466 11.9759 223.445 11.3676C223.431 10.7549 223.577 10.1754 223.882 9.62898C224.187 9.08261 224.659 8.62526 225.297 8.25692C225.942 7.88426 226.57 7.70678 227.181 7.72448C227.799 7.73785 228.351 7.90471 228.836 8.22504L227.621 9.52687C227.098 9.22821 226.567 9.23487 226.026 9.54687C225.734 9.71587 225.514 9.94259 225.368 10.227C225.218 10.504 225.153 10.8165 225.174 11.1647C225.191 11.5054 225.301 11.8522 225.504 12.2049C225.704 12.5502 225.949 12.8189 226.24 13.0111C226.534 13.1915 226.843 13.2933 227.167 13.3166C227.486 13.3324 227.789 13.2579 228.074 13.0932C228.344 12.9372 228.555 12.7304 228.706 12.4729C228.861 12.2034 228.925 11.9414 228.898 11.6867L230.633 11.2856C230.686 11.8454 230.56 12.4082 230.257 12.9739C229.956 13.5278 229.483 13.991 228.837 14.3637ZM230.967 10.6571C230.746 10.2743 230.659 9.87968 230.704 9.47314C230.753 9.05475 230.923 8.65625 231.215 8.27764C231.506 7.89902 231.9 7.56671 232.395 7.28071C232.643 7.13771 232.908 7.01506 233.189 6.91276C233.466 6.80295 233.72 6.73141 233.95 6.69814L233.768 6.3829C233.552 6.00762 233.272 5.78366 232.93 5.71101C232.596 5.63403 232.211 5.7212 231.775 5.97254C231.453 6.15887 231.177 6.39283 230.95 6.67441C230.722 6.95599 230.509 7.29878 230.312 7.70278L229.256 6.99154C229.499 6.51102 229.787 6.08996 230.118 5.72837C230.457 5.36244 230.852 5.04948 231.302 4.78948C232.143 4.30414 232.917 4.1373 233.625 4.28894C234.341 4.43625 234.924 4.9002 235.375 5.68078L236.46 7.56092C236.555 7.72604 236.649 7.82721 236.74 7.86443C236.828 7.89414 236.943 7.8775 237.087 7.81451L237.795 9.04167C237.678 9.14969 237.565 9.23995 237.456 9.31246C237.36 9.38814 237.274 9.44764 237.199 9.49098C236.899 9.66431 236.631 9.72893 236.395 9.68483C236.16 9.64073 235.971 9.52977 235.828 9.35196L235.619 9.06748C235.551 9.5569 235.378 10.0022 235.099 10.4033C234.823 10.7926 234.487 11.1021 234.089 11.3318C233.691 11.5614 233.293 11.6863 232.894 11.7063C232.491 11.7189 232.119 11.6383 231.779 11.4646C231.441 11.279 231.171 11.0099 230.967 10.6571ZM234.813 8.8421C234.897 8.55363 234.891 8.32684 234.795 8.16172L234.451 7.56503C233.97 7.63274 233.53 7.78144 233.132 8.0111C232.735 8.24077 232.462 8.51342 232.314 8.82904C232.161 9.13717 232.165 9.43008 232.326 9.70778C232.456 9.93295 232.663 10.0836 232.947 10.1597C233.231 10.2359 233.542 10.1764 233.88 9.98143C234.105 9.85143 234.299 9.68449 234.461 9.48059C234.631 9.27237 234.748 9.05953 234.813 8.8421ZM239.705 1.81435C239.248 2.07868 238.891 2.40491 238.634 2.79305C238.374 3.17367 238.26 3.57461 238.293 3.99586L240.353 7.56475L238.845 8.43575L235.439 2.53638L236.824 1.73688L237.552 2.99781C237.52 2.47551 237.599 2.00486 237.787 1.58586C237.983 1.16252 238.255 0.835589 238.602 0.605073C238.76 0.514073 238.863 0.459325 238.912 0.440831L239.705 1.81435ZM241.08 3.21213C240.755 2.64921 240.571 2.07008 240.528 1.47474C240.484 0.879394 240.583 0.331789 240.825 -0.168078C241.067 -0.667945 241.443 -1.06521 241.953 -1.35988C242.389 -1.61121 242.842 -1.72771 243.313 -1.70939C243.787 -1.7029 244.217 -1.59086 244.603 -1.37329L242.666 -4.72827L244.174 -5.59927L247.944 0.930563C248.04 1.09569 248.133 1.19685 248.225 1.23407C248.312 1.26378 248.423 1.24931 248.56 1.19065L249.268 2.41781C249.028 2.62635 248.83 2.77612 248.672 2.86712C248.402 3.02312 248.138 3.08557 247.879 3.05447C247.629 3.01904 247.429 2.89899 247.281 2.69433L247.044 2.3358C247.039 2.82924 246.905 3.28187 246.642 3.69368C246.387 4.10116 246.057 4.4219 245.652 4.6559C245.104 4.97223 244.542 5.11663 243.965 5.0891C243.385 5.05406 242.842 4.87695 242.338 4.55778C241.829 4.2311 241.41 3.78255 241.08 3.21213ZM246.163 1.32871L245.35 -0.0785784C245.039 -0.33949 244.675 -0.494276 244.256 -0.542937C243.838 -0.591598 243.475 -0.527095 243.167 -0.349428C242.859 -0.171761 242.639 0.0705524 242.506 0.377513C242.369 0.676969 242.316 1.00238 242.349 1.35376C242.378 1.69762 242.483 2.02717 242.665 2.3424C242.851 2.66514 243.094 2.92045 243.392 3.10831C243.687 3.28867 243.999 3.38833 244.33 3.40728C244.665 3.41439 244.99 3.32695 245.305 3.14495C245.59 2.98028 245.817 2.72396 245.987 2.37599C246.164 2.02368 246.222 1.67459 246.163 1.32871Z" fill="black"/>
</g>
</g>
<g filter="url(#filter4_ddd_6_6928)">
<g clip-path="url(#clip5_6_6928)">
<rect x="246.702" y="397.652" width="341.169" height="192" rx="10" transform="rotate(-30 246.702 397.652)" fill="url(#paint2_linear_6_6928)"/>
</g>
</g>
<g filter="url(#filter5_d_6_6928)">
<g clip-path="url(#clip6_6_6928)">
<rect x="333.265" y="-190.416" width="341.169" height="192" rx="10" transform="rotate(-30 333.265 -190.416)" fill="url(#paint3_linear_6_6928)"/>
</g>
</g>
<g filter="url(#filter6_ddd_6_6928)">
<g clip-path="url(#clip7_6_6928)">
<rect x="-272.5" y="428.368" width="341.169" height="192" rx="10" transform="rotate(-30 -272.5 428.368)" fill="url(#paint4_linear_6_6928)"/>
</g>
</g>
</g>
<defs>
<filter id="filter0_ddd_6_6928" x="20.4653" y="73.8682" width="427.19" height="377.777" filterUnits="userSpaceOnUse" color-interpolation-filters="sRGB">
<feFlood flood-opacity="0" result="BackgroundImageFix"/>
<feColorMatrix in="SourceAlpha" type="matrix" values="0 0 0 0 0 0 0 0 0 0 0 0 0 0 0 0 0 0 127 0" result="hardAlpha"/>
<feOffset/>
<feGaussianBlur stdDeviation="0.5"/>
<feColorMatrix type="matrix" values="0 0 0 0 0 0 0 0 0 0 0 0 0 0 0 0 0 0 0.04 0"/>
<feBlend mode="normal" in2="BackgroundImageFix" result="effect1_dropShadow_6_6928"/>
<feColorMatrix in="SourceAlpha" type="matrix" values="0 0 0 0 0 0 0 0 0 0 0 0 0 0 0 0 0 0 127 0" result="hardAlpha"/>
<feOffset dy="2"/>
<feGaussianBlur stdDeviation="3"/>
<feColorMatrix type="matrix" values="0 0 0 0 0 0 0 0 0 0 0 0 0 0 0 0 0 0 0.04 0"/>
<feBlend mode="normal" in2="effect1_dropShadow_6_6928" result="effect2_dropShadow_6_6928"/>
<feColorMatrix in="SourceAlpha" type="matrix" values="0 0 0 0 0 0 0 0 0 0 0 0 0 0 0 0 0 0 127 0" result="hardAlpha"/>
<feOffset dy="16"/>
<feGaussianBlur stdDeviation="12"/>
<feColorMatrix type="matrix" values="0 0 0 0 0 0 0 0 0 0 0 0 0 0 0 0 0 0 0.06 0"/>
<feBlend mode="normal" in2="effect2_dropShadow_6_6928" result="effect3_dropShadow_6_6928"/>
<feBlend mode="normal" in="SourceGraphic" in2="effect3_dropShadow_6_6928" result="shape"/>
</filter>
<filter id="filter1_ddd_6_6928" x="326.172" y="-102.632" width="427.19" height="377.777" filterUnits="userSpaceOnUse" color-interpolation-filters="sRGB">
<feFlood flood-opacity="0" result="BackgroundImageFix"/>
<feColorMatrix in="SourceAlpha" type="matrix" values="0 0 0 0 0 0 0 0 0 0 0 0 0 0 0 0 0 0 127 0" result="hardAlpha"/>
<feOffset/>
<feGaussianBlur stdDeviation="0.5"/>
<feColorMatrix type="matrix" values="0 0 0 0 0 0 0 0 0 0 0 0 0 0 0 0 0 0 0.04 0"/>
<feBlend mode="normal" in2="BackgroundImageFix" result="effect1_dropShadow_6_6928"/>
<feColorMatrix in="SourceAlpha" type="matrix" values="0 0 0 0 0 0 0 0 0 0 0 0 0 0 0 0 0 0 127 0" result="hardAlpha"/>
<feOffset dy="2"/>
<feGaussianBlur stdDeviation="3"/>
<feColorMatrix type="matrix" values="0 0 0 0 0 0 0 0 0 0 0 0 0 0 0 0 0 0 0.04 0"/>
<feBlend mode="normal" in2="effect1_dropShadow_6_6928" result="effect2_dropShadow_6_6928"/>
<feColorMatrix in="SourceAlpha" type="matrix" values="0 0 0 0 0 0 0 0 0 0 0 0 0 0 0 0 0 0 127 0" result="hardAlpha"/>
<feOffset dy="16"/>
<feGaussianBlur stdDeviation="12"/>
<feColorMatrix type="matrix" values="0 0 0 0 0 0 0 0 0 0 0 0 0 0 0 0 0 0 0.06 0"/>
<feBlend mode="normal" in2="effect2_dropShadow_6_6928" result="effect3_dropShadow_6_6928"/>
<feBlend mode="normal" in="SourceGraphic" in2="effect3_dropShadow_6_6928" result="shape"/>
</filter>
<filter id="filter2_ddd_6_6928" x="-313.407" y="-9.5" width="439.461" height="384.861" filterUnits="userSpaceOnUse" color-interpolation-filters="sRGB">
<feFlood flood-opacity="0" result="BackgroundImageFix"/>
<feColorMatrix in="SourceAlpha" type="matrix" values="0 0 0 0 0 0 0 0 0 0 0 0 0 0 0 0 0 0 127 0" result="hardAlpha"/>
<feOffset/>
<feGaussianBlur stdDeviation="0.5"/>
<feColorMatrix type="matrix" values="0 0 0 0 0 0 0 0 0 0 0 0 0 0 0 0 0 0 0.04 0"/>
<feBlend mode="normal" in2="BackgroundImageFix" result="effect1_dropShadow_6_6928"/>
<feColorMatrix in="SourceAlpha" type="matrix" values="0 0 0 0 0 0 0 0 0 0 0 0 0 0 0 0 0 0 127 0" result="hardAlpha"/>
<feOffset dy="2"/>
<feGaussianBlur stdDeviation="3"/>
<feColorMatrix type="matrix" values="0 0 0 0 0 0 0 0 0 0 0 0 0 0 0 0 0 0 0.04 0"/>
<feBlend mode="normal" in2="effect1_dropShadow_6_6928" result="effect2_dropShadow_6_6928"/>
<feColorMatrix in="SourceAlpha" type="matrix" values="0 0 0 0 0 0 0 0 0 0 0 0 0 0 0 0 0 0 127 0" result="hardAlpha"/>
<feOffset dy="16"/>
<feGaussianBlur stdDeviation="12"/>
<feColorMatrix type="matrix" values="0 0 0 0 0 0 0 0 0 0 0 0 0 0 0 0 0 0 0.06 0"/>
<feBlend mode="normal" in2="effect2_dropShadow_6_6928" result="effect3_dropShadow_6_6928"/>
<feBlend mode="normal" in="SourceGraphic" in2="effect3_dropShadow_6_6928" result="shape"/>
</filter>
<filter id="filter3_ddd_6_6928" x="-2.11212" y="-189.226" width="439.461" height="384.861" filterUnits="userSpaceOnUse" color-interpolation-filters="sRGB">
<feFlood flood-opacity="0" result="BackgroundImageFix"/>
<feColorMatrix in="SourceAlpha" type="matrix" values="0 0 0 0 0 0 0 0 0 0 0 0 0 0 0 0 0 0 127 0" result="hardAlpha"/>
<feOffset/>
<feGaussianBlur stdDeviation="0.5"/>
<feColorMatrix type="matrix" values="0 0 0 0 0 0 0 0 0 0 0 0 0 0 0 0 0 0 0.04 0"/>
<feBlend mode="normal" in2="BackgroundImageFix" result="effect1_dropShadow_6_6928"/>
<feColorMatrix in="SourceAlpha" type="matrix" values="0 0 0 0 0 0 0 0 0 0 0 0 0 0 0 0 0 0 127 0" result="hardAlpha"/>
<feOffset dy="2"/>
<feGaussianBlur stdDeviation="3"/>
<feColorMatrix type="matrix" values="0 0 0 0 0 0 0 0 0 0 0 0 0 0 0 0 0 0 0.04 0"/>
<feBlend mode="normal" in2="effect1_dropShadow_6_6928" result="effect2_dropShadow_6_6928"/>
<feColorMatrix in="SourceAlpha" type="matrix" values="0 0 0 0 0 0 0 0 0 0 0 0 0 0 0 0 0 0 127 0" result="hardAlpha"/>
<feOffset dy="16"/>
<feGaussianBlur stdDeviation="12"/>
<feColorMatrix type="matrix" values="0 0 0 0 0 0 0 0 0 0 0 0 0 0 0 0 0 0 0.06 0"/>
<feBlend mode="normal" in2="effect2_dropShadow_6_6928" result="effect3_dropShadow_6_6928"/>
<feBlend mode="normal" in="SourceGraphic" in2="effect3_dropShadow_6_6928" result="shape"/>
</filter>
<filter id="filter4_ddd_6_6928" x="222.702" y="219.068" width="439.461" height="384.861" filterUnits="userSpaceOnUse" color-interpolation-filters="sRGB">
<feFlood flood-opacity="0" result="BackgroundImageFix"/>
<feColorMatrix in="SourceAlpha" type="matrix" values="0 0 0 0 0 0 0 0 0 0 0 0 0 0 0 0 0 0 127 0" result="hardAlpha"/>
<feOffset/>
<feGaussianBlur stdDeviation="0.5"/>
<feColorMatrix type="matrix" values="0 0 0 0 0 0 0 0 0 0 0 0 0 0 0 0 0 0 0.04 0"/>
<feBlend mode="normal" in2="BackgroundImageFix" result="effect1_dropShadow_6_6928"/>
<feColorMatrix in="SourceAlpha" type="matrix" values="0 0 0 0 0 0 0 0 0 0 0 0 0 0 0 0 0 0 127 0" result="hardAlpha"/>
<feOffset dy="2"/>
<feGaussianBlur stdDeviation="3"/>
<feColorMatrix type="matrix" values="0 0 0 0 0 0 0 0 0 0 0 0 0 0 0 0 0 0 0.04 0"/>
<feBlend mode="normal" in2="effect1_dropShadow_6_6928" result="effect2_dropShadow_6_6928"/>
<feColorMatrix in="SourceAlpha" type="matrix" values="0 0 0 0 0 0 0 0 0 0 0 0 0 0 0 0 0 0 127 0" result="hardAlpha"/>
<feOffset dy="16"/>
<feGaussianBlur stdDeviation="12"/>
<feColorMatrix type="matrix" values="0 0 0 0 0 0 0 0 0 0 0 0 0 0 0 0 0 0 0.06 0"/>
<feBlend mode="normal" in2="effect2_dropShadow_6_6928" result="effect3_dropShadow_6_6928"/>
<feBlend mode="normal" in="SourceGraphic" in2="effect3_dropShadow_6_6928" result="shape"/>
</filter>
<filter id="filter5_d_6_6928" x="309.265" y="-369" width="439.461" height="384.861" filterUnits="userSpaceOnUse" color-interpolation-filters="sRGB">
<feFlood flood-opacity="0" result="BackgroundImageFix"/>
<feColorMatrix in="SourceAlpha" type="matrix" values="0 0 0 0 0 0 0 0 0 0 0 0 0 0 0 0 0 0 127 0" result="hardAlpha"/>
<feOffset dy="16"/>
<feGaussianBlur stdDeviation="12"/>
<feColorMatrix type="matrix" values="0 0 0 0 0 0 0 0 0 0 0 0 0 0 0 0 0 0 0.06 0"/>
<feBlend mode="normal" in2="BackgroundImageFix" result="effect1_dropShadow_6_6928"/>
<feBlend mode="normal" in="SourceGraphic" in2="effect1_dropShadow_6_6928" result="shape"/>
</filter>
<filter id="filter6_ddd_6_6928" x="-296.5" y="249.784" width="439.461" height="384.861" filterUnits="userSpaceOnUse" color-interpolation-filters="sRGB">
<feFlood flood-opacity="0" result="BackgroundImageFix"/>
<feColorMatrix in="SourceAlpha" type="matrix" values="0 0 0 0 0 0 0 0 0 0 0 0 0 0 0 0 0 0 127 0" result="hardAlpha"/>
<feOffset/>
<feGaussianBlur stdDeviation="0.5"/>
<feColorMatrix type="matrix" values="0 0 0 0 0 0 0 0 0 0 0 0 0 0 0 0 0 0 0.04 0"/>
<feBlend mode="normal" in2="BackgroundImageFix" result="effect1_dropShadow_6_6928"/>
<feColorMatrix in="SourceAlpha" type="matrix" values="0 0 0 0 0 0 0 0 0 0 0 0 0 0 0 0 0 0 127 0" result="hardAlpha"/>
<feOffset dy="2"/>
<feGaussianBlur stdDeviation="3"/>
<feColorMatrix type="matrix" values="0 0 0 0 0 0 0 0 0 0 0 0 0 0 0 0 0 0 0.04 0"/>
<feBlend mode="normal" in2="effect1_dropShadow_6_6928" result="effect2_dropShadow_6_6928"/>
<feColorMatrix in="SourceAlpha" type="matrix" values="0 0 0 0 0 0 0 0 0 0 0 0 0 0 0 0 0 0 127 0" result="hardAlpha"/>
<feOffset dy="16"/>
<feGaussianBlur stdDeviation="12"/>
<feColorMatrix type="matrix" values="0 0 0 0 0 0 0 0 0 0 0 0 0 0 0 0 0 0 0.06 0"/>
<feBlend mode="normal" in2="effect2_dropShadow_6_6928" result="effect3_dropShadow_6_6928"/>
<feBlend mode="normal" in="SourceGraphic" in2="effect3_dropShadow_6_6928" result="shape"/>
</filter>
<linearGradient id="paint0_linear_6_6928" x1="-118.823" y1="169.084" x2="-239.123" y2="253.819" gradientUnits="userSpaceOnUse">
<stop stop-color="#FAE263" stop-opacity="0.5"/>
<stop offset="0.984375" stop-color="#E6CF59" stop-opacity="0.59"/>
</linearGradient>
<linearGradient id="paint1_linear_6_6928" x1="192.472" y1="-10.6416" x2="119.183" y2="69.4648" gradientUnits="userSpaceOnUse">
<stop offset="0.182292" stop-color="#9DD7AD"/>
<stop offset="1" stop-color="#7BE7CD" stop-opacity="0.65"/>
</linearGradient>
<linearGradient id="paint2_linear_6_6928" x1="417.286" y1="397.652" x2="343.997" y2="477.759" gradientUnits="userSpaceOnUse">
<stop offset="0.182292" stop-color="#ECF9A2" stop-opacity="0.32"/>
<stop offset="1" stop-color="#7B8CE7" stop-opacity="0.65"/>
</linearGradient>
<linearGradient id="paint3_linear_6_6928" x1="503.85" y1="-190.416" x2="504.329" y2="1.58458" gradientUnits="userSpaceOnUse">
<stop stop-color="#E8F0F2"/>
<stop offset="1" stop-color="#7B93E7" stop-opacity="0.65"/>
</linearGradient>
<linearGradient id="paint4_linear_6_6928" x1="-101.915" y1="428.368" x2="-175.205" y2="508.475" gradientUnits="userSpaceOnUse">
<stop offset="0.182292" stop-color="#A2DAF9"/>
<stop offset="0.739583" stop-color="#A2DBFA"/>
</linearGradient>
<clipPath id="clip0_6_6928">
<rect width="480" height="261" fill="white"/>
</clipPath>
<clipPath id="clip1_6_6928">
<rect x="44.4653" y="245.368" width="327" height="192" rx="10" transform="rotate(-30 44.4653 245.368)" fill="white"/>
</clipPath>
<clipPath id="clip2_6_6928">
<rect x="350.172" y="68.8682" width="327" height="192" rx="10" transform="rotate(-30 350.172 68.8682)" fill="white"/>
</clipPath>
<clipPath id="clip3_6_6928">
<rect x="-289.407" y="169.084" width="341.169" height="192" rx="10" transform="rotate(-30 -289.407 169.084)" fill="white"/>
</clipPath>
<clipPath id="clip4_6_6928">
<rect x="21.8879" y="-10.6416" width="341.169" height="192" rx="10" transform="rotate(-30 21.8879 -10.6416)" fill="white"/>
</clipPath>
<clipPath id="clip5_6_6928">
<rect x="246.702" y="397.652" width="341.169" height="192" rx="10" transform="rotate(-30 246.702 397.652)" fill="white"/>
</clipPath>
<clipPath id="clip6_6_6928">
<rect x="333.265" y="-190.416" width="341.169" height="192" rx="10" transform="rotate(-30 333.265 -190.416)" fill="white"/>
</clipPath>
<clipPath id="clip7_6_6928">
<rect x="-272.5" y="428.368" width="341.169" height="192" rx="10" transform="rotate(-30 -272.5 428.368)" fill="white"/>
</clipPath>
</defs>
</svg>
