<svg width="140" height="53" viewBox="0 0 140 53" fill="none" xmlns="http://www.w3.org/2000/svg">
<path d="M12.0312 1C13.0666 1 14.6926 5.69969 15.2795 7.50668C15.4141 7.92126 15.7943 8.20684 16.23 8.22162C18.1151 8.28556 23 8.55772 23 9.66144C23 10.7495 19.5188 13.4853 18.0955 14.5583C17.7427 14.8243 17.5982 15.2836 17.734 15.704C18.3132 17.4975 19.7048 22.1483 18.8117 22.8815C17.9323 23.6034 14.1749 20.7486 12.6485 19.5286C12.2692 19.2254 11.7305 19.2251 11.3511 19.528C9.82346 20.7477 6.06764 23.6035 5.25065 22.8815C4.41962 22.1471 5.73815 17.4816 6.28237 15.6949C6.40915 15.2786 6.26319 14.8287 5.91569 14.5668C4.4996 13.4997 1 10.7523 1 9.66144C1 8.55659 5.89498 8.285 7.77586 8.22142C8.20861 8.2068 8.58723 7.92462 8.72415 7.51385C9.32468 5.71216 10.9944 1 12.0312 1Z" stroke="#212135" stroke-width="2" stroke-linecap="round" stroke-linejoin="round"/>
<path d="M41.0312 1C42.0666 1 43.6926 5.69969 44.2795 7.50668C44.4141 7.92126 44.7943 8.20684 45.23 8.22162C47.1151 8.28556 52 8.55772 52 9.66144C52 10.7495 48.5188 13.4853 47.0955 14.5583C46.7427 14.8243 46.5982 15.2836 46.734 15.704C47.3132 17.4975 48.7048 22.1483 47.8117 22.8815C46.9323 23.6034 43.1749 20.7486 41.6485 19.5286C41.2692 19.2254 40.7305 19.2251 40.3511 19.528C38.8235 20.7477 35.0676 23.6035 34.2507 22.8815C33.4196 22.1471 34.7381 17.4816 35.2824 15.6949C35.4092 15.2786 35.2632 14.8287 34.9157 14.5668C33.4996 13.4997 30 10.7523 30 9.66144C30 8.55659 34.895 8.285 36.7759 8.22142C37.2086 8.2068 37.5872 7.92462 37.7241 7.51385C38.3247 5.71216 39.9944 1 41.0312 1Z" stroke="#212135" stroke-width="2" stroke-linecap="round" stroke-linejoin="round"/>
<path d="M70.0312 1C71.0666 1 72.6926 5.69969 73.2795 7.50668C73.4141 7.92126 73.7943 8.20684 74.23 8.22162C76.1151 8.28556 81 8.55772 81 9.66144C81 10.7495 77.5188 13.4853 76.0955 14.5583C75.7427 14.8243 75.5982 15.2836 75.734 15.704C76.3132 17.4975 77.7048 22.1483 76.8117 22.8815C75.9323 23.6034 72.1749 20.7486 70.6485 19.5286C70.2692 19.2254 69.7305 19.2251 69.3511 19.528C67.8235 20.7477 64.0676 23.6035 63.2507 22.8815C62.4196 22.1471 63.7381 17.4816 64.2824 15.6949C64.4092 15.2786 64.2632 14.8287 63.9157 14.5668C62.4996 13.4997 59 10.7523 59 9.66144C59 8.55659 63.895 8.285 65.7759 8.22142C66.2086 8.2068 66.5872 7.92462 66.7241 7.51385C67.3247 5.71216 68.9944 1 70.0312 1Z" stroke="#212135" stroke-width="2" stroke-linecap="round" stroke-linejoin="round"/>
<path d="M99.0312 1C100.067 1 101.693 5.69969 102.279 7.50668C102.414 7.92126 102.794 8.20684 103.23 8.22162C105.115 8.28556 110 8.55772 110 9.66144C110 10.7495 106.519 13.4853 105.096 14.5583C104.743 14.8243 104.598 15.2836 104.734 15.704C105.313 17.4975 106.705 22.1483 105.812 22.8815C104.932 23.6034 101.175 20.7486 99.6485 19.5286C99.2692 19.2254 98.7305 19.2251 98.3511 19.528C96.8235 20.7477 93.0676 23.6035 92.2507 22.8815C91.4196 22.1471 92.7381 17.4816 93.2824 15.6949C93.4092 15.2786 93.2632 14.8287 92.9157 14.5668C91.4996 13.4997 88 10.7523 88 9.66144C88 8.55659 92.895 8.285 94.7759 8.22142C95.2086 8.2068 95.5872 7.92462 95.7241 7.51385C96.3247 5.71216 97.9944 1 99.0312 1Z" stroke="#212135" stroke-width="2" stroke-linecap="round" stroke-linejoin="round"/>
<path d="M128.031 1C129.067 1 130.693 5.69969 131.279 7.50668C131.414 7.92126 131.794 8.20684 132.23 8.22162C134.115 8.28556 139 8.55772 139 9.66144C139 10.7495 135.519 13.4853 134.096 14.5583C133.743 14.8243 133.598 15.2836 133.734 15.704C134.313 17.4975 135.705 22.1483 134.812 22.8815C133.932 23.6034 130.175 20.7486 128.648 19.5286C128.269 19.2254 127.73 19.2251 127.351 19.528C125.823 20.7477 122.068 23.6035 121.251 22.8815C120.42 22.1471 121.738 17.4816 122.282 15.6949C122.409 15.2786 122.263 14.8287 121.916 14.5668C120.5 13.4997 117 10.7523 117 9.66144C117 8.55659 121.895 8.285 123.776 8.22142C124.209 8.2068 124.587 7.92462 124.724 7.51385C125.325 5.71216 126.994 1 128.031 1Z" stroke="#212135" stroke-width="2" stroke-linecap="round" stroke-linejoin="round"/>
<path d="M7.8 40.9C7.8 37.75 8.61667 35.1833 10.25 33.2C11.9833 31.05 14.3583 29.975 17.375 29.975C19.5583 29.975 21.2 30.5083 22.3 31.575C23.4 32.625 23.95 34.2667 23.95 36.5C23.95 39.9 23.0833 42.5917 21.35 44.575C19.6333 46.525 17.3333 47.5 14.45 47.5C12.2 47.5 10.525 46.9417 9.425 45.825C8.34167 44.6917 7.8 43.05 7.8 40.9ZM14.375 35.725C13.625 38.725 13.25 41.4083 13.25 43.775C13.25 44.3417 13.3417 44.8083 13.525 45.175C13.725 45.5417 14.075 45.725 14.575 45.725C15.0917 45.725 15.5083 45.6083 15.825 45.375C16.1417 45.125 16.425 44.725 16.675 44.175C17.075 43.275 17.4583 41.875 17.825 39.975C18.2083 38.0583 18.4167 36.7083 18.45 35.925C18.4833 35.125 18.5 34.425 18.5 33.825C18.5 33.225 18.4083 32.7333 18.225 32.35C18.0417 31.9667 17.7 31.775 17.2 31.775C16.7167 31.775 16.3083 31.925 15.975 32.225C15.3583 32.7917 14.825 33.9583 14.375 35.725ZM31.624 35.15C32.524 34.2167 33.924 33.75 35.824 33.75C36.874 33.75 37.6824 34.0333 38.249 34.6C38.8324 35.15 39.124 35.9417 39.124 36.975C39.124 37.9917 38.8324 38.8667 38.249 39.6C37.6824 40.3167 36.8657 40.825 35.799 41.125C35.8824 41.4583 35.9824 41.8 36.099 42.15L36.449 43.15C36.7657 44 37.049 44.575 37.299 44.875C37.549 45.175 37.8407 45.375 38.174 45.475C37.9907 46.1583 37.5657 46.6833 36.899 47.05C36.3657 47.35 35.7324 47.5 34.999 47.5C32.849 47.5 31.6324 45.8417 31.349 42.525C31.299 42.0583 31.274 41.5917 31.274 41.125C32.1074 40.8917 32.8157 40.3833 33.399 39.6C33.9824 38.8167 34.274 37.9667 34.274 37.05C34.274 36.1333 33.949 35.675 33.299 35.675C32.8324 35.675 32.4157 35.9333 32.049 36.45C31.6824 36.9667 31.4157 37.6667 31.249 38.55L29.599 47L24.549 47.5L28.049 29.5L33.074 29L32.499 31.975C32.249 33.375 31.9574 34.4333 31.624 35.15ZM50.3869 42.775C50.8036 43.0583 51.0119 43.5167 51.0119 44.15C51.0119 44.7667 50.8536 45.275 50.5369 45.675C50.2202 46.075 49.8036 46.4083 49.2869 46.675C48.2202 47.225 47.1119 47.5 45.9619 47.5C44.8119 47.5 43.8952 47.375 43.2119 47.125C42.5452 46.875 41.9869 46.5167 41.5369 46.05C40.6536 45.1667 40.2119 43.9167 40.2119 42.3C40.2119 39.7833 40.8952 37.7583 42.2619 36.225C43.7286 34.575 45.7369 33.75 48.2869 33.75C49.8702 33.75 51.0536 34.0833 51.8369 34.75C52.4202 35.25 52.7119 35.9083 52.7119 36.725C52.7119 39.6583 50.1786 41.125 45.1119 41.125C45.0452 41.5583 45.0119 41.9583 45.0119 42.325C45.0119 43.0917 45.1786 43.625 45.5119 43.925C45.8619 44.2083 46.3536 44.35 46.9869 44.35C47.6202 44.35 48.2702 44.2083 48.9369 43.925C49.6202 43.625 50.1036 43.2417 50.3869 42.775ZM45.2869 40.05C46.4702 40.05 47.4036 39.6833 48.0869 38.95C48.7702 38.25 49.1119 37.3417 49.1119 36.225C49.1119 35.8417 49.0369 35.55 48.8869 35.35C48.7536 35.1333 48.5452 35.025 48.2619 35.025C47.9786 35.025 47.7119 35.0833 47.4619 35.2C47.2286 35.3 46.9869 35.5333 46.7369 35.9C46.1202 36.7333 45.6369 38.1167 45.2869 40.05ZM53.3426 47L56.3926 30.575C58.0426 30.3917 60.0676 30.3 62.4676 30.3C64.8842 30.3 66.6509 30.65 67.7676 31.35C68.8842 32.05 69.4426 33.1083 69.4426 34.525C69.4426 35.925 69.0759 37.0667 68.3426 37.95C67.6259 38.8333 66.6426 39.4167 65.3926 39.7C65.6759 41.0833 66.1426 42.3333 66.7926 43.45C67.3926 44.5 68.0426 45.1917 68.7426 45.525C68.4926 46.225 68.1092 46.725 67.5926 47.025C67.0926 47.3417 66.4759 47.5 65.7426 47.5C65.0259 47.5 64.3842 47.2917 63.8176 46.875C63.2509 46.4417 62.7426 45.8333 62.2926 45.05C61.3426 43.35 60.8176 41.1583 60.7176 38.475H60.8926C62.1259 38.4417 63.0509 38.1083 63.6676 37.475C64.2842 36.825 64.5926 35.825 64.5926 34.475C64.5926 32.7917 63.8842 31.9167 62.4676 31.85H61.9176C61.7676 31.85 61.6509 31.8583 61.5676 31.875L58.6926 47H53.3426ZM80.7092 42.775C81.1258 43.0583 81.3342 43.5167 81.3342 44.15C81.3342 44.7667 81.1758 45.275 80.8592 45.675C80.5425 46.075 80.1258 46.4083 79.6092 46.675C78.5425 47.225 77.4342 47.5 76.2842 47.5C75.1342 47.5 74.2175 47.375 73.5342 47.125C72.8675 46.875 72.3092 46.5167 71.8592 46.05C70.9758 45.1667 70.5342 43.9167 70.5342 42.3C70.5342 39.7833 71.2175 37.7583 72.5842 36.225C74.0508 34.575 76.0592 33.75 78.6092 33.75C80.1925 33.75 81.3758 34.0833 82.1592 34.75C82.7425 35.25 83.0342 35.9083 83.0342 36.725C83.0342 39.6583 80.5008 41.125 75.4342 41.125C75.3675 41.5583 75.3342 41.9583 75.3342 42.325C75.3342 43.0917 75.5008 43.625 75.8342 43.925C76.1842 44.2083 76.6758 44.35 77.3092 44.35C77.9425 44.35 78.5925 44.2083 79.2592 43.925C79.9425 43.625 80.4258 43.2417 80.7092 42.775ZM75.6092 40.05C76.7925 40.05 77.7258 39.6833 78.4092 38.95C79.0925 38.25 79.4342 37.3417 79.4342 36.225C79.4342 35.8417 79.3592 35.55 79.2092 35.35C79.0758 35.1333 78.8675 35.025 78.5842 35.025C78.3008 35.025 78.0342 35.0833 77.7842 35.2C77.5508 35.3 77.3092 35.5333 77.0592 35.9C76.4425 36.7333 75.9592 38.1167 75.6092 40.05ZM91.3648 38.225C91.5982 37.6083 91.7148 37.0333 91.7148 36.5C91.7148 35.5167 91.3148 35.025 90.5148 35.025C90.0982 35.025 89.7148 35.2167 89.3648 35.6C89.0315 35.9667 88.8648 36.3833 88.8648 36.85C88.8648 37.1833 88.9982 37.4833 89.2648 37.75C89.6482 38.1167 90.3315 38.6 91.3148 39.2C92.2982 39.8 92.9732 40.35 93.3398 40.85C93.7232 41.3333 93.9148 41.9167 93.9148 42.6C93.9148 43.2667 93.7482 43.9083 93.4148 44.525C93.0982 45.1417 92.6482 45.6667 92.0648 46.1C90.8148 47.0333 89.1898 47.5 87.1898 47.5C86.1065 47.5 85.1482 47.2167 84.3148 46.65C83.4815 46.1 83.0648 45.5 83.0648 44.85C83.0648 44.2 83.2982 43.6833 83.7648 43.3C84.2482 42.9167 84.8398 42.725 85.5398 42.725C86.2398 42.725 86.8065 42.8583 87.2398 43.125C87.0232 43.675 86.9148 44.1333 86.9148 44.5C86.9148 45.6 87.3815 46.15 88.3148 46.15C88.7148 46.15 89.0482 46.025 89.3148 45.775C89.5815 45.525 89.7148 45.1833 89.7148 44.75C89.7148 43.9 88.9982 43.025 87.5648 42.125C86.3982 41.3583 85.6815 40.825 85.4148 40.525C84.9648 39.9917 84.7398 39.3917 84.7398 38.725C84.7398 38.0583 84.8982 37.4083 85.2148 36.775C85.5315 36.1417 85.9815 35.6 86.5648 35.15C87.7815 34.2167 89.4482 33.75 91.5648 33.75C92.6482 33.75 93.5065 33.9667 94.1398 34.4C94.7898 34.8333 95.1148 35.4167 95.1148 36.15C95.1148 36.8833 94.8898 37.4583 94.4398 37.875C94.0065 38.2917 93.3898 38.5 92.5898 38.5C92.0398 38.5 91.6315 38.4083 91.3648 38.225ZM101.498 47.5C97.8314 47.5 95.998 45.775 95.998 42.325C95.998 39.875 96.673 37.8583 98.023 36.275C99.4564 34.5917 101.415 33.75 103.898 33.75C105.698 33.75 107.056 34.1667 107.973 35C108.89 35.8333 109.348 37.125 109.348 38.875C109.348 41.5417 108.631 43.65 107.198 45.2C105.798 46.7333 103.898 47.5 101.498 47.5ZM102.148 36.625C101.948 37.075 101.765 37.6417 101.598 38.325C101.448 38.9917 101.273 39.8583 101.073 40.925C100.873 41.9917 100.773 43.1833 100.773 44.5C100.773 44.9333 100.84 45.2917 100.973 45.575C101.123 45.8583 101.39 46 101.773 46C102.156 46 102.465 45.9083 102.698 45.725C102.948 45.5417 103.165 45.2333 103.348 44.8C103.681 44.0333 103.981 42.9417 104.248 41.525C104.515 40.0917 104.656 39.0667 104.673 38.45C104.706 37.8333 104.723 37.3 104.723 36.85C104.723 36.3833 104.656 36 104.523 35.7C104.39 35.4 104.131 35.25 103.748 35.25C103.381 35.25 103.073 35.3667 102.823 35.6C102.573 35.8333 102.348 36.175 102.148 36.625ZM118.644 39.975C119.244 38.9083 119.544 37.8333 119.544 36.75C119.544 36.0333 119.285 35.675 118.769 35.675C118.369 35.675 117.96 36.0167 117.544 36.7C117.11 37.3833 116.827 38.1667 116.694 39.05L115.394 47L110.219 47.5L112.769 34.25L116.894 33.75L116.444 36.275C117.26 34.5917 118.585 33.75 120.419 33.75C121.385 33.75 122.127 34 122.644 34.5C123.177 35 123.444 35.7667 123.444 36.8C123.444 37.8167 123.102 38.65 122.419 39.3C121.752 39.95 120.844 40.275 119.694 40.275C119.194 40.275 118.844 40.175 118.644 39.975ZM124.256 44.5C124.256 44.05 124.372 43.2583 124.606 42.125L125.931 35.375H124.456L124.556 34.625C126.556 34.025 128.522 32.9917 130.456 31.525H131.656L131.056 34.25H133.006L132.781 35.375H130.856L129.581 42.125C129.364 43.1583 129.256 43.85 129.256 44.2C129.256 45 129.606 45.4833 130.306 45.65C130.139 46.2167 129.756 46.6667 129.156 47C128.556 47.3333 127.831 47.5 126.981 47.5C126.131 47.5 125.464 47.2333 124.981 46.7C124.497 46.1667 124.256 45.4333 124.256 44.5Z" fill="black"/>
</svg>
